<svg width="85" height="11" viewBox="0 0 85 11" fill="none" xmlns="http://www.w3.org/2000/svg">
<path fill-rule="evenodd" clip-rule="evenodd" d="M5.15371 2.47566C8.27241 2.12221 10.0436 2.76227 10.6874 3.23334L10.8157 3.34173C10.3147 3.04492 9.66989 3.09132 9.21437 3.47904C8.56043 4.03563 8.56619 5.04729 9.22642 5.5964L10.5225 6.67434C11.2375 7.26901 11.244 8.36451 10.5362 8.96765C9.98112 9.44057 9.16626 9.44542 8.60562 8.97914L7.60993 8.15103C6.47487 7.20701 4.82538 7.2159 3.70056 8.1721L2.81899 8.9215C2.18539 9.46012 1.25625 9.46513 0.616876 8.93337C-0.200979 8.25316 -0.20643 6.99943 0.605481 6.31214L5.13516 2.47774C5.14132 2.47706 5.1475 2.47636 5.15371 2.47566Z" fill="url(#paint0_radial_1_3)"/>
<path fill-rule="evenodd" clip-rule="evenodd" d="M5.15377 2.47566C8.27249 2.1222 10.0437 2.76227 10.6874 3.23334L10.8158 3.34177C10.8783 3.3788 10.9385 3.42117 10.9959 3.46889L13.8935 5.87876C14.4514 6.34279 15.2616 6.34048 15.8169 5.87329C16.5314 5.27212 16.5282 4.17104 15.8103 3.57396L12.8307 1.09586C11.062 -0.375228 8.49228 -0.364057 6.73634 1.12235L5.13519 2.47774C5.14136 2.47705 5.14756 2.47636 5.15377 2.47566Z" fill="url(#paint1_linear_1_3)"/>
<path d="M29.0525 5.63756C28.9653 6.14351 28.5265 6.5132 28.0131 6.5132H27.1102C26.076 6.5132 25.1918 7.25726 25.015 8.27624L24.874 9.08907C24.7744 9.66355 24.2759 10.083 23.6928 10.083C22.9478 10.083 22.3831 9.41064 22.512 8.67682L23.4922 3.09456C23.7712 1.50583 25.1512 0.347097 26.7642 0.347097H29.4725C30.1293 0.347097 30.6263 0.94084 30.5108 1.58735C30.4209 2.09033 29.9835 2.45655 29.4725 2.45655H26.8406C26.3669 2.45655 25.9619 2.79753 25.8813 3.26433C25.7784 3.8595 26.2366 4.40374 26.8406 4.40374H28.0131C28.6672 4.40374 29.1636 4.99296 29.0525 5.63756Z" fill="#242B50"/>
<path d="M36.6569 9.21384C36.567 9.71682 36.1295 10.083 35.6186 10.083H33.9677C32.0867 10.083 30.6612 8.38543 30.9865 6.53276L31.8993 1.33449C31.9996 0.763524 32.4955 0.347097 33.0752 0.347097C33.8167 0.347097 34.3789 1.01601 34.2513 1.74648L33.4823 6.14716C33.3156 7.10055 34.0494 7.97359 35.0172 7.97359H35.6186C36.2753 7.97359 36.7724 8.56733 36.6569 9.21384Z" fill="#242B50"/>
<path d="M40.2927 0.347097C41.0342 0.347097 41.5965 1.01579 41.4692 1.74631L40.1899 9.08963C40.0899 9.66389 39.5914 10.083 39.0085 10.083C38.2632 10.083 37.6984 9.41044 37.8273 8.67639L39.1165 1.33479C39.2168 0.763652 39.7128 0.347097 40.2927 0.347097Z" fill="#242B50"/>
<path d="M45.2974 10.2724C44.023 10.2724 43.1435 9.97487 42.6589 9.37989C42.3268 8.96521 42.1608 8.39728 42.1608 7.6761C42.1608 7.34255 42.1967 6.97746 42.2685 6.58081L42.7397 3.87638C43.1615 1.46042 44.6333 0.252441 47.1551 0.252441C48.1961 0.252441 48.9858 0.477811 49.5243 0.928549C50.0628 1.37027 50.332 1.97877 50.332 2.75404C50.332 3.06956 50.2871 3.38958 50.1974 3.71411C50.1166 4.03864 50.0359 4.28204 49.9551 4.44431C49.872 4.59449 49.7139 4.68771 49.5423 4.68771H48.6334C48.134 4.68771 47.7878 4.06479 47.7878 3.56537C47.7878 2.75404 47.4512 2.34837 46.7781 2.34837C45.8717 2.34837 45.3288 2.87574 45.1493 3.93047L44.6916 6.52672C44.6467 6.77012 44.6243 7.00901 44.6243 7.24339C44.6243 7.86541 44.9877 8.17642 45.7147 8.17642C46.2473 8.17642 46.6412 7.9828 46.8965 7.59556C47.0565 7.35279 46.8401 7.0676 46.5494 7.0676C46.2757 7.0676 46.0687 6.82011 46.117 6.55076L46.1827 6.18462C46.2468 5.82697 46.558 5.56665 46.9214 5.56665H48.6782C49.2932 5.56665 49.7575 6.12476 49.6455 6.72955L49.5782 7.12169C49.2012 9.22213 47.7743 10.2724 45.2974 10.2724Z" fill="#242B50"/>
<path d="M58.4205 0.347097C59.1624 0.347097 59.7249 1.01613 59.5976 1.74701L58.3183 9.08994C58.2183 9.66402 57.72 10.083 57.1372 10.083C56.3919 10.083 55.8273 9.41021 55.9565 8.67621L56.0613 8.08175C56.2004 7.29159 55.5925 6.56728 54.7902 6.56728C54.162 6.56728 53.625 7.01964 53.5184 7.63874L53.2686 9.08821C53.1696 9.66304 52.671 10.083 52.0877 10.083C51.343 10.083 50.7787 9.41096 50.9075 8.67749L52.1971 1.3333C52.2972 0.763023 52.7926 0.347097 53.3716 0.347097C54.1132 0.347097 54.6749 1.01688 54.5458 1.74717L54.3348 2.94032C54.1948 3.73187 54.8037 4.45783 55.6075 4.45783C56.2345 4.45783 56.771 4.00784 56.8802 3.39044L57.2439 1.33388C57.3448 0.763105 57.8408 0.347097 58.4205 0.347097Z" fill="#242B50"/>
<path d="M69.8004 1.58735C69.7105 2.09032 69.2731 2.45655 68.7621 2.45655H67.9925C67.0334 2.45655 66.2131 3.14597 66.048 4.09078L65.1745 9.08953C65.0741 9.66392 64.5754 10.083 63.9923 10.083C63.2469 10.083 62.6818 9.41065 62.8101 8.67637L63.6114 4.09107C63.7605 3.23786 63.1038 2.45655 62.2377 2.45655H61.8319C61.1751 2.45655 60.6781 1.86281 60.7936 1.2163C60.8835 0.713324 61.3209 0.347097 61.8319 0.347097H68.7621C69.4189 0.347097 69.9159 0.94084 69.8004 1.58735Z" fill="#242B50"/>
<path d="M75.714 9.21384C75.6241 9.71682 75.1866 10.083 74.6757 10.083H73.0247C71.1437 10.083 69.7182 8.38543 70.0436 6.53276L70.9564 1.33449C71.0566 0.763525 71.5526 0.347097 72.1323 0.347097C72.8738 0.347097 73.436 1.01601 73.3083 1.74648L72.5393 6.14716C72.3727 7.10055 73.1064 7.97359 74.0743 7.97359H74.6757C75.3324 7.97359 75.8295 8.56733 75.714 9.21384Z" fill="#242B50"/>
<path d="M80.0613 3.7682C80.1426 3.7682 80.2185 3.72752 80.2635 3.65983L82.1723 0.789498C82.356 0.513156 82.6659 0.347097 82.9977 0.347097C83.7974 0.347097 84.268 1.24514 83.8129 1.90263L81.1701 5.72082C80.8889 6.12707 80.699 6.58934 80.6133 7.07592L80.2584 9.09132C80.1574 9.66485 79.6591 10.083 79.0768 10.083C78.3309 10.083 77.7658 9.40971 77.8951 8.67514L78.1897 7.00239C78.2665 6.56617 78.2317 6.1176 78.0885 5.69845L76.8044 1.93886C76.5377 1.15832 77.1179 0.347097 77.9427 0.347097C78.4711 0.347097 78.9376 0.691923 79.0927 1.19707L79.8292 3.59662C79.8605 3.69859 79.9546 3.7682 80.0613 3.7682Z" fill="#242B50"/>
<defs>
<radialGradient id="paint0_radial_1_3" cx="0" cy="0" r="1" gradientUnits="userSpaceOnUse" gradientTransform="translate(-0.888855 10.1842) rotate(-40.8296) scale(11.531 10.072)">
<stop stop-color="#46528F"/>
<stop offset="1" stop-color="#242B50"/>
</radialGradient>
<linearGradient id="paint1_linear_1_3" x1="10.743" y1="0" x2="10.743" y2="6.22524" gradientUnits="userSpaceOnUse">
<stop stop-color="#FF1CA4"/>
<stop offset="1" stop-color="#C44EFB"/>
</linearGradient>
</defs>
</svg>
